<?xml version="1.0" standalone="no"?>
<!DOCTYPE svg PUBLIC "-//W3C//DTD SVG 20010904//EN"
 "http://www.w3.org/TR/2001/REC-SVG-20010904/DTD/svg10.dtd">
<svg version="1.0" xmlns="http://www.w3.org/2000/svg"
 width="500.000000pt" height="500.000000pt" viewBox="0 0 500.000000 500.000000"
 preserveAspectRatio="xMidYMid meet">

<g transform="translate(0.000000,500.000000) scale(0.100000,-0.100000)"
fill="#000000" stroke="none">
<path d="M2023 3385 c-49 -59 -115 -177 -310 -559 l-190 -369 -149 2 c-82 1
-170 4 -195 7 -36 5 -47 3 -52 -9 -12 -31 20 -38 192 -44 94 -3 171 -10 171
-14 0 -11 -110 -212 -176 -320 -76 -126 -114 -175 -151 -196 -32 -17 -33 -17
-60 3 -59 42 -113 206 -113 340 0 85 28 203 64 269 59 109 152 150 290 126 76
-13 103 -4 75 24 -15 16 -101 35 -154 35 -144 0 -268 -123 -306 -305 -28 -135
-7 -340 45 -443 64 -125 150 -141 238 -43 47 52 166 247 253 413 l54 103 153
-4 c84 -1 154 -4 155 -5 2 -1 -15 -81 -38 -177 -72 -309 -120 -562 -126 -660
-5 -92 -5 -97 16 -108 19 -10 26 -8 51 18 17 16 30 37 30 46 0 21 -27 30 -46
14 -13 -11 -15 -9 -10 12 3 13 8 47 11 74 14 108 132 670 161 768 5 15 13 17
42 13 21 -3 82 -7 137 -8 94 -3 100 -2 100 17 0 25 -44 34 -173 34 -91 1 -92
1 -87 24 3 12 39 164 81 337 90 374 121 552 105 593 -15 39 -52 36 -88 -8z
m32 -143 c-9 -53 -43 -212 -77 -352 -34 -140 -71 -295 -82 -345 l-21 -90 -148
-3 c-81 -1 -147 1 -147 4 0 10 313 621 373 729 67 119 110 182 115 167 2 -7
-4 -56 -13 -110z"/>
<path d="M4043 3208 c-21 -26 -57 -105 -89 -193 l-32 -90 -147 -6 c-80 -4
-151 -11 -157 -17 -25 -25 6 -32 145 -32 l143 0 -45 -184 -45 -183 -27 28
c-33 35 -60 36 -114 4 -40 -23 -68 -58 -145 -182 -37 -61 -84 -105 -104 -97
-13 5 -46 62 -46 79 0 4 -12 33 -26 65 -44 98 -96 100 -161 5 -20 -27 -32 -41
-28 -30 4 11 17 55 28 97 16 59 18 81 9 90 -19 19 -37 -6 -52 -68 -17 -68 -73
-149 -172 -247 -133 -131 -208 -126 -208 15 0 84 18 126 88 197 94 98 127 177
84 200 -51 27 -132 -69 -187 -223 -61 -170 -242 -446 -292 -446 -32 0 2 198
73 421 14 44 23 87 20 95 -8 20 -43 17 -77 -6 -35 -26 -119 -63 -125 -57 -3 3
13 41 35 85 51 101 68 166 51 187 -33 40 -113 -11 -164 -105 -84 -155 29 -270
179 -181 20 12 37 21 39 21 1 0 -13 -53 -31 -117 -19 -65 -41 -160 -50 -211
-44 -263 94 -232 269 59 l34 57 12 -42 c16 -59 51 -89 106 -89 54 0 96 26 187
118 35 35 65 63 67 61 2 -2 -4 -41 -14 -85 -13 -63 -15 -84 -6 -93 18 -18 34
3 78 102 46 102 97 192 120 211 14 11 18 11 30 -6 8 -11 21 -41 29 -67 39
-132 102 -173 174 -112 l31 26 0 -37 c0 -47 39 -90 73 -79 43 14 67 37 123
120 32 46 58 83 60 81 1 -1 -9 -58 -21 -127 -42 -225 -68 -423 -69 -520 -1
-95 -1 -95 24 -95 16 0 29 9 40 28 14 26 14 29 -4 43 -19 13 -19 19 -8 122 13
113 59 397 93 572 13 68 35 137 61 195 23 50 60 140 83 200 37 100 44 110 68
113 15 2 27 1 27 -2 0 -2 -16 -74 -35 -158 -81 -346 -182 -833 -224 -1078 -37
-216 -37 -256 5 -248 23 4 40 49 29 74 -4 11 -7 33 -6 49 8 98 164 866 247
1216 l36 149 216 3 c279 3 578 -1 620 -8 30 -6 33 -4 30 16 -2 15 -12 26 -28
30 -14 4 -206 7 -427 8 l-401 1 34 132 c35 137 36 162 7 156 -13 -2 -26 -37
-54 -148 -36 -140 -38 -145 -65 -148 -22 -3 -26 -1 -20 15 28 69 57 197 54
234 -2 36 -7 45 -24 47 -11 2 -25 -3 -31 -10z m-29 -210 c-15 -46 -29 -77 -32
-70 -5 15 48 166 55 158 3 -3 -7 -42 -23 -88z m-59 -174 l-15 -39 6 35 c7 38
14 54 20 47 2 -2 -3 -21 -11 -43z m-1564 -171 c-5 -16 -26 -64 -48 -108 -34
-66 -41 -76 -47 -58 -11 35 14 100 57 149 21 24 40 44 42 44 2 0 0 -12 -4 -27z
m489 -97 c-30 -45 -40 -54 -40 -38 0 12 62 94 67 88 3 -2 -9 -25 -27 -50z
m882 -95 c7 -43 5 -48 -58 -143 -96 -144 -131 -160 -127 -55 5 101 102 253
157 245 16 -2 22 -13 28 -47z"/>
</g>
</svg>
